<svg width="50" height="48" viewBox="0 0 50 48" fill="none" xmlns="http://www.w3.org/2000/svg">
<circle cx="13.5" cy="21.5" r="10.5" fill="#FFEBA6"/>
<g filter="url(#filter0_f_63_2916)">
<circle cx="13.25" cy="21.75" r="7.25" fill="#FFBA68"/>
</g>
<g filter="url(#filter1_i_63_2916)">
<path fill-rule="evenodd" clip-rule="evenodd" d="M21.3571 36.25C21.347 36.25 21.337 36.25 21.3269 36.25C16.1758 36.25 12 32.0742 12 26.9231C12 21.772 16.1758 17.5962 21.3269 17.5962C21.7974 17.5962 22.2598 17.631 22.7116 17.6983C24.4264 14.3172 27.9357 12 31.9862 12C37.3031 12 41.6875 15.9926 42.3047 21.1431C45.9658 21.6867 48.7747 24.8429 48.7747 28.6552C48.7747 32.8497 45.3744 36.25 41.1799 36.25C40.7719 36.25 40.3714 36.2178 39.9808 36.1558V36.25H21.3571Z" fill="white"/>
</g>
<defs>
<filter id="filter0_f_63_2916" x="0.5" y="9" width="25.5" height="25.5" filterUnits="userSpaceOnUse" color-interpolation-filters="sRGB">
<feFlood flood-opacity="0" result="BackgroundImageFix"/>
<feBlend mode="normal" in="SourceGraphic" in2="BackgroundImageFix" result="shape"/>
<feGaussianBlur stdDeviation="2.75" result="effect1_foregroundBlur_63_2916"/>
</filter>
<filter id="filter1_i_63_2916" x="12" y="10" width="40.7747" height="26.25" filterUnits="userSpaceOnUse" color-interpolation-filters="sRGB">
<feFlood flood-opacity="0" result="BackgroundImageFix"/>
<feBlend mode="normal" in="SourceGraphic" in2="BackgroundImageFix" result="shape"/>
<feColorMatrix in="SourceAlpha" type="matrix" values="0 0 0 0 0 0 0 0 0 0 0 0 0 0 0 0 0 0 127 0" result="hardAlpha"/>
<feOffset dx="4" dy="-2"/>
<feGaussianBlur stdDeviation="4"/>
<feComposite in2="hardAlpha" operator="arithmetic" k2="-1" k3="1"/>
<feColorMatrix type="matrix" values="0 0 0 0 0 0 0 0 0 0 0 0 0 0 0 0 0 0 0.15 0"/>
<feBlend mode="normal" in2="shape" result="effect1_innerShadow_63_2916"/>
</filter>
</defs>
</svg>
