<svg width="96" height="96" viewBox="0 0 96 96" fill="none" xmlns="http://www.w3.org/2000/svg">
<g filter="url(#filter0_i_41_1755)">
<path fill-rule="evenodd" clip-rule="evenodd" d="M28.29 62C28.29 62 28.2899 62 28.2899 62C17.0841 62 8 53.0457 8 42C8 30.9543 17.0841 22 28.2899 22C29.3134 22 30.3192 22.0747 31.3019 22.2188C35.0324 14.9687 42.6665 10 51.478 10C63.0444 10 72.5821 18.5614 73.9249 29.6059C81.8895 30.7713 88.0001 37.5394 88.0001 45.7143C88.0001 54.7086 80.603 62 71.4783 62C70.5907 62 69.7195 61.931 68.8698 61.7982V62.0001H28.29V62Z" fill="#D9D9D9"/>
</g>
<rect width="3.23686" height="22.0281" rx="1.61843" transform="matrix(-0.926307 0.376768 0.376768 0.926307 55.9985 64)" fill="#1BA4FF"/>
<rect width="3.23686" height="22.0281" rx="1.61843" transform="matrix(-0.926307 0.376768 0.376768 0.926307 29.9985 64)" fill="#1BA4FF"/>
<rect width="3.23686" height="13.6865" rx="1.61843" transform="matrix(-0.926307 0.376768 0.376768 0.926307 43.2979 64)" fill="#1BA4FF"/>
<rect width="3.23686" height="13.6865" rx="1.61843" transform="matrix(-0.926307 0.376768 0.376768 0.926307 69.1411 64)" fill="#1BA4FF"/>
<defs>
<filter id="filter0_i_41_1755" x="8" y="7" width="84" height="55" filterUnits="userSpaceOnUse" color-interpolation-filters="sRGB">
<feFlood flood-opacity="0" result="BackgroundImageFix"/>
<feBlend mode="normal" in="SourceGraphic" in2="BackgroundImageFix" result="shape"/>
<feColorMatrix in="SourceAlpha" type="matrix" values="0 0 0 0 0 0 0 0 0 0 0 0 0 0 0 0 0 0 127 0" result="hardAlpha"/>
<feOffset dx="4" dy="-3"/>
<feGaussianBlur stdDeviation="6"/>
<feComposite in2="hardAlpha" operator="arithmetic" k2="-1" k3="1"/>
<feColorMatrix type="matrix" values="0 0 0 0 0 0 0 0 0 0 0 0 0 0 0 0 0 0 0.25 0"/>
<feBlend mode="normal" in2="shape" result="effect1_innerShadow_41_1755"/>
</filter>
</defs>
</svg>
