<svg width="96" height="96" viewBox="0 0 96 96" fill="none" xmlns="http://www.w3.org/2000/svg">
<g filter="url(#filter0_i_41_1767)">
<path fill-rule="evenodd" clip-rule="evenodd" d="M28.29 61C28.29 61 28.2899 61 28.2899 61C17.0841 61 8 52.0457 8 41C8 29.9543 17.0841 21 28.2899 21C29.3134 21 30.3192 21.0747 31.3019 21.2188C35.0324 13.9687 42.6665 9 51.478 9C63.0444 9 72.5821 17.5614 73.9249 28.6059C81.8895 29.7713 88.0001 36.5394 88.0001 44.7143C88.0001 53.7086 80.603 61 71.4783 61C70.5907 61 69.7195 60.931 68.8698 60.7982V61.0001H28.29V61Z" fill="#D9D9D9"/>
</g>
<rect width="3.23686" height="13.6865" rx="1.61843" transform="matrix(-0.926307 0.376768 0.376768 0.926307 39.5776 63)" fill="#1BA4FF"/>
<rect width="3.23686" height="13.6865" rx="1.61843" transform="matrix(-0.926307 0.376768 0.376768 0.926307 53.5776 71)" fill="#1BA4FF"/>
<rect width="3.23686" height="13.6865" rx="1.61843" transform="matrix(-0.926307 0.376768 0.376768 0.926307 28.4209 72)" fill="#1BA4FF"/>
<rect width="3.23686" height="13.6865" rx="1.61843" transform="matrix(-0.926307 0.376768 0.376768 0.926307 65.4209 63)" fill="#1BA4FF"/>
<defs>
<filter id="filter0_i_41_1767" x="8" y="6" width="84" height="55" filterUnits="userSpaceOnUse" color-interpolation-filters="sRGB">
<feFlood flood-opacity="0" result="BackgroundImageFix"/>
<feBlend mode="normal" in="SourceGraphic" in2="BackgroundImageFix" result="shape"/>
<feColorMatrix in="SourceAlpha" type="matrix" values="0 0 0 0 0 0 0 0 0 0 0 0 0 0 0 0 0 0 127 0" result="hardAlpha"/>
<feOffset dx="4" dy="-3"/>
<feGaussianBlur stdDeviation="5.5"/>
<feComposite in2="hardAlpha" operator="arithmetic" k2="-1" k3="1"/>
<feColorMatrix type="matrix" values="0 0 0 0 0 0 0 0 0 0 0 0 0 0 0 0 0 0 0.25 0"/>
<feBlend mode="normal" in2="shape" result="effect1_innerShadow_41_1767"/>
</filter>
</defs>
</svg>
