<svg width="31" height="13" viewBox="0 0 31 13" fill="none" xmlns="http://www.w3.org/2000/svg">
<path d="M1.82812 5.22656V12H0.375V3.54688H1.75L1.82812 5.22656ZM1.53125 7.45312L0.859375 7.42969C0.864583 6.85156 0.940104 6.31771 1.08594 5.82812C1.23177 5.33333 1.44792 4.90365 1.73438 4.53906C2.02083 4.17448 2.3776 3.89323 2.80469 3.69531C3.23177 3.49219 3.72656 3.39062 4.28906 3.39062C4.6849 3.39062 5.04948 3.44792 5.38281 3.5625C5.71615 3.67188 6.00521 3.84635 6.25 4.08594C6.49479 4.32552 6.6849 4.63281 6.82031 5.00781C6.95573 5.38281 7.02344 5.83594 7.02344 6.36719V12H5.57812V6.4375C5.57812 5.99479 5.5026 5.64062 5.35156 5.375C5.20573 5.10938 4.9974 4.91667 4.72656 4.79688C4.45573 4.67188 4.13802 4.60938 3.77344 4.60938C3.34635 4.60938 2.98958 4.6849 2.70312 4.83594C2.41667 4.98698 2.1875 5.19531 2.01562 5.46094C1.84375 5.72656 1.71875 6.03125 1.64062 6.375C1.56771 6.71354 1.53125 7.07292 1.53125 7.45312ZM7.00781 6.65625L6.03906 6.95312C6.04427 6.48958 6.11979 6.04427 6.26562 5.61719C6.41667 5.1901 6.63281 4.8099 6.91406 4.47656C7.20052 4.14323 7.55208 3.88021 7.96875 3.6875C8.38542 3.48958 8.86198 3.39062 9.39844 3.39062C9.85156 3.39062 10.2526 3.45052 10.6016 3.57031C10.9557 3.6901 11.2526 3.875 11.4922 4.125C11.737 4.36979 11.9219 4.6849 12.0469 5.07031C12.1719 5.45573 12.2344 5.91406 12.2344 6.44531V12H10.7812V6.42969C10.7812 5.95573 10.7057 5.58854 10.5547 5.32812C10.4089 5.0625 10.2005 4.8776 9.92969 4.77344C9.66406 4.66406 9.34635 4.60938 8.97656 4.60938C8.65885 4.60938 8.3776 4.66406 8.13281 4.77344C7.88802 4.88281 7.68229 5.03385 7.51562 5.22656C7.34896 5.41406 7.22135 5.63021 7.13281 5.875C7.04948 6.11979 7.00781 6.38021 7.00781 6.65625ZM15.9922 3.54688V12H14.5391V3.54688H15.9922ZM14.4297 1.30469C14.4297 1.07031 14.5 0.872396 14.6406 0.710938C14.7865 0.549479 15 0.46875 15.2812 0.46875C15.5573 0.46875 15.7682 0.549479 15.9141 0.710938C16.0651 0.872396 16.1406 1.07031 16.1406 1.30469C16.1406 1.52865 16.0651 1.72135 15.9141 1.88281C15.7682 2.03906 15.5573 2.11719 15.2812 2.11719C15 2.11719 14.7865 2.03906 14.6406 1.88281C14.5 1.72135 14.4297 1.52865 14.4297 1.30469ZM23.2344 9.75781C23.2344 9.54948 23.1875 9.35677 23.0938 9.17969C23.0052 8.9974 22.8203 8.83333 22.5391 8.6875C22.263 8.53646 21.8464 8.40625 21.2891 8.29688C20.8203 8.19792 20.3958 8.08073 20.0156 7.94531C19.6406 7.8099 19.3203 7.64583 19.0547 7.45312C18.7943 7.26042 18.5938 7.03385 18.4531 6.77344C18.3125 6.51302 18.2422 6.20833 18.2422 5.85938C18.2422 5.52604 18.3151 5.21094 18.4609 4.91406C18.612 4.61719 18.8229 4.35417 19.0938 4.125C19.3698 3.89583 19.7005 3.71615 20.0859 3.58594C20.4714 3.45573 20.901 3.39062 21.375 3.39062C22.0521 3.39062 22.6302 3.51042 23.1094 3.75C23.5885 3.98958 23.9557 4.3099 24.2109 4.71094C24.4661 5.10677 24.5938 5.54688 24.5938 6.03125H23.1484C23.1484 5.79688 23.0781 5.57031 22.9375 5.35156C22.8021 5.1276 22.6016 4.94271 22.3359 4.79688C22.0755 4.65104 21.7552 4.57812 21.375 4.57812C20.974 4.57812 20.6484 4.64062 20.3984 4.76562C20.1536 4.88542 19.974 5.03906 19.8594 5.22656C19.75 5.41406 19.6953 5.61198 19.6953 5.82031C19.6953 5.97656 19.7214 6.11719 19.7734 6.24219C19.8307 6.36198 19.9297 6.47396 20.0703 6.57812C20.2109 6.67708 20.4089 6.77083 20.6641 6.85938C20.9193 6.94792 21.2448 7.03646 21.6406 7.125C22.3333 7.28125 22.9036 7.46875 23.3516 7.6875C23.7995 7.90625 24.1328 8.17448 24.3516 8.49219C24.5703 8.8099 24.6797 9.19531 24.6797 9.64844C24.6797 10.0182 24.6016 10.3568 24.4453 10.6641C24.2943 10.9714 24.0729 11.237 23.7812 11.4609C23.4948 11.6797 23.151 11.8516 22.75 11.9766C22.3542 12.0964 21.9089 12.1562 21.4141 12.1562C20.6693 12.1562 20.0391 12.0234 19.5234 11.7578C19.0078 11.4922 18.6172 11.1484 18.3516 10.7266C18.0859 10.3047 17.9531 9.85938 17.9531 9.39062H19.4062C19.4271 9.78646 19.5417 10.1016 19.75 10.3359C19.9583 10.5651 20.2135 10.7292 20.5156 10.8281C20.8177 10.9219 21.1172 10.9688 21.4141 10.9688C21.8099 10.9688 22.1406 10.9167 22.4062 10.8125C22.6771 10.7083 22.8828 10.5651 23.0234 10.3828C23.1641 10.2005 23.2344 9.99219 23.2344 9.75781ZM30.1172 3.54688V4.65625H25.5469V3.54688H30.1172ZM27.0938 1.49219H28.5391V9.90625C28.5391 10.1927 28.5833 10.4089 28.6719 10.5547C28.7604 10.7005 28.875 10.7969 29.0156 10.8438C29.1562 10.8906 29.3073 10.9141 29.4688 10.9141C29.5885 10.9141 29.7135 10.9036 29.8438 10.8828C29.9792 10.8568 30.0807 10.8359 30.1484 10.8203L30.1562 12C30.0417 12.0365 29.8906 12.0703 29.7031 12.1016C29.5208 12.138 29.2995 12.1562 29.0391 12.1562C28.6849 12.1562 28.3594 12.0859 28.0625 11.9453C27.7656 11.8047 27.5286 11.5703 27.3516 11.2422C27.1797 10.9089 27.0938 10.4609 27.0938 9.89844V1.49219Z" fill="white"/>
</svg>
