<svg width="96" height="96" viewBox="0 0 96 96" fill="none" xmlns="http://www.w3.org/2000/svg">
<g filter="url(#filter0_i_41_1628)">
<path fill-rule="evenodd" clip-rule="evenodd" d="M25.0942 79.6673C25.0942 79.6673 25.0942 79.6673 25.0942 79.6673C11.7873 79.6673 1 68.8761 1 55.5645C1 42.2529 11.7873 31.4617 25.0942 31.4617C26.3097 31.4617 27.5043 31.5517 28.6715 31.7255C33.1013 22.9881 42.1669 17 52.6305 17C66.3655 17 77.6916 27.3177 79.2862 40.6279C88.7439 42.0325 96 50.1889 96 60.0407C96 70.8802 87.216 79.6673 76.3805 79.6673C75.3264 79.6673 74.2916 79.5842 73.2826 79.424V79.6674H25.0942V79.6673Z" fill="white"/>
</g>
<defs>
<filter id="filter0_i_41_1628" x="1" y="11.9806" width="105.039" height="67.6869" filterUnits="userSpaceOnUse" color-interpolation-filters="sRGB">
<feFlood flood-opacity="0" result="BackgroundImageFix"/>
<feBlend mode="normal" in="SourceGraphic" in2="BackgroundImageFix" result="shape"/>
<feColorMatrix in="SourceAlpha" type="matrix" values="0 0 0 0 0 0 0 0 0 0 0 0 0 0 0 0 0 0 127 0" result="hardAlpha"/>
<feOffset dx="10.0387" dy="-5.01937"/>
<feGaussianBlur stdDeviation="12.5484"/>
<feComposite in2="hardAlpha" operator="arithmetic" k2="-1" k3="1"/>
<feColorMatrix type="matrix" values="0 0 0 0 0 0 0 0 0 0 0 0 0 0 0 0 0 0 0.25 0"/>
<feBlend mode="normal" in2="shape" result="effect1_innerShadow_41_1628"/>
</filter>
</defs>
</svg>
